<svg width="25" height="18" viewBox="0 0 25 18" fill="none" xmlns="http://www.w3.org/2000/svg">
<g clip-path="url(#clip0_21_1456)">
<path d="M0.850098 1.34998C3.71847 1.34998 3.71847 3.04998 6.58708 3.04998C9.45545 3.04998 9.45545 1.34998 12.3241 1.34998C15.1931 1.34998 15.1931 3.04998 18.062 3.04998C20.931 3.04998 20.931 1.34998 23.8001 1.34998" stroke="black" stroke-width="1.7" stroke-linecap="round" stroke-linejoin="round"/>
<path d="M0.850098 8.15002C3.71847 8.15002 3.71847 9.85002 6.58708 9.85002C9.45545 9.85002 9.45545 8.15002 12.3241 8.15002C15.1931 8.15002 15.1931 9.85002 18.062 9.85002C20.931 9.85002 20.931 8.15002 23.8001 8.15002" stroke="black" stroke-width="1.7" stroke-linecap="round" stroke-linejoin="round"/>
<path d="M0.850098 14.95C3.71847 14.95 3.71847 16.65 6.58708 16.65C9.45545 16.65 9.45545 14.95 12.3241 14.95C15.1931 14.95 15.1931 16.65 18.062 16.65C20.931 16.65 20.931 14.95 23.8001 14.95" stroke="black" stroke-width="1.7" stroke-linecap="round" stroke-linejoin="round"/>
</g>
<defs>
<clipPath id="clip0_21_1456">
<rect width="24.65" height="17" fill="white" transform="translate(0 0.5)"/>
</clipPath>
</defs>
</svg>
