<svg width="17" height="17" viewBox="0 0 17 17" fill="none" xmlns="http://www.w3.org/2000/svg">
<path fill-rule="evenodd" clip-rule="evenodd" d="M5.29407 1.29063C5.98088 0.500776 6.99443 0 8.125 0C9.25551 0 10.269 0.500726 10.9558 1.29051C12.0001 1.21755 13.071 1.58013 13.8705 2.37964C14.67 3.17915 15.0326 4.25007 14.9597 5.29433C15.7493 5.98113 16.25 6.99457 16.25 8.125C16.25 9.25564 15.7492 10.2693 14.9592 10.9561C15.032 12.0001 14.6694 13.0708 13.8701 13.8702C13.0707 14.6696 12 15.0322 10.9559 14.9594C10.2691 15.7492 9.25556 16.25 8.125 16.25C6.9945 16.25 5.981 15.7493 5.2942 14.9595C4.24993 15.0325 3.179 14.6699 2.37948 13.8704C1.57996 13.0709 1.21738 11.9999 1.29034 10.9557C0.500654 10.2689 0 9.25543 0 8.125C0 6.99451 0.500705 5.98102 1.29046 5.29421C1.21758 4.25004 1.58017 3.17923 2.37962 2.37978C3.17906 1.58033 4.24989 1.21774 5.29407 1.29063ZM11.1336 6.61327C11.3342 6.33239 11.2692 5.94205 10.9883 5.74142C10.7074 5.54079 10.317 5.60584 10.1164 5.88673L7.42025 9.66136L6.06694 8.30806C5.82286 8.06398 5.42714 8.06398 5.18306 8.30806C4.93898 8.55214 4.93898 8.94786 5.18306 9.19194L7.05806 11.0669C7.18797 11.1969 7.36846 11.263 7.55155 11.2479C7.73464 11.2327 7.9018 11.1378 8.00858 10.9883L11.1336 6.61327Z" fill="#FF719D"/>
</svg>
