<svg width="117" height="43" viewBox="0 0 117 43" fill="none" xmlns="http://www.w3.org/2000/svg">
<path d="M0.54 3.25H12.015C11.97 4.555 11.97 6.58 11.97 8.335C11.97 10.315 11.97 12.43 12.015 13.78C10.395 13.735 8.46 13.69 7.065 13.69V15.04C8.64 15.04 10.575 14.995 11.835 14.905C11.79 17.11 11.745 21.52 11.79 24.04C10.53 23.95 8.685 23.95 7.065 23.95V25.255C8.46 25.255 10.395 25.21 12.015 25.165C12.015 26.65 11.97 28.9 11.97 30.97C11.97 33.04 12.015 35.38 12.015 37H0.54C0.585 32.14 0.63 27.325 0.63 20.125C0.63 12.97 0.585 8.11 0.54 3.25ZM21.4905 11.755L21.7605 11.8C22.5255 8.47 23.8305 7.03 25.8105 7.03C27.7905 7.03 29.1855 8.065 29.1855 11.665V27.82V37H22.7055C22.7505 31.915 22.7505 25.795 22.7505 17.47C22.7505 16.75 22.6155 16.435 22.2555 16.435C21.7155 16.435 21.4905 16.885 21.4905 18.64C21.4905 30.16 21.4905 33.445 21.5805 37H14.9655C15.0105 32.635 14.9655 28.315 14.9655 21.88C14.9655 15.67 15.0105 11.485 14.9655 7.3H21.4905C21.4905 9.01 21.4905 10.315 21.4905 11.755ZM38.9063 14.05C38.3663 14.05 38.0963 14.68 38.0513 20.17C38.4113 20.17 38.8613 20.17 39.5363 20.17C39.5813 18.865 39.5813 18.055 39.5813 17.38C39.5813 14.545 39.3563 14.05 38.9063 14.05ZM39.4913 24.04H38.0063V24.715C38.0063 28.765 38.0963 29.26 38.5913 29.26C39.1313 29.26 39.2663 28.765 39.2663 25.255C39.9413 25.3 40.8413 25.345 41.7413 25.345C42.8663 25.345 43.8563 25.3 44.7113 25.255C45.0263 33.625 43.6313 37.36 38.5463 37.36C33.6413 37.36 31.9313 34.39 31.9313 23.185C31.9313 9.46 33.7313 6.94 38.8163 6.94C43.7663 6.94 44.9363 9.55 44.9363 16.795C44.9363 20.395 44.8463 22.915 44.8013 24.085C42.3263 24.04 40.7063 24.04 39.4913 24.04ZM52.0904 14.14H52.3154C52.9004 8.92 54.2054 7.165 55.9604 7.165C56.2754 7.165 56.4554 7.21 56.7254 7.255C56.5904 12.16 56.4554 16.165 56.4554 21.565C56.1854 21.43 55.7804 21.34 55.4654 21.34C54.7004 21.34 54.4304 21.835 54.4304 23.05C54.4304 26.92 54.4754 30.835 54.8354 37H47.6804C47.7704 32.905 47.7704 28.36 47.7704 21.925C47.7704 15.715 47.7704 11.485 47.6804 7.3H52.2254C52.1354 9.685 52.0904 11.755 52.0904 14.14ZM66.2234 36.28C68.6984 36.28 69.1484 36.01 69.1484 35.515C69.1484 35.065 68.9234 34.84 67.6634 34.84C65.9534 34.84 64.5134 34.975 63.3884 35.02C63.3434 35.155 63.3434 35.29 63.3434 35.38C63.3434 36.1 63.9284 36.28 66.2234 36.28ZM65.9534 14.32C65.2334 14.32 65.0084 15.355 65.0084 17.335C65.0084 19.315 65.1884 20.395 65.9534 20.395C66.6734 20.395 66.8534 19.315 66.8534 17.335C66.8534 15.355 66.6284 14.32 65.9534 14.32ZM70.7234 14.725V15.04C72.4784 16.165 73.0184 17.65 73.0184 20.17C73.0184 24.625 71.3984 26.695 65.8634 26.695C65.0534 26.695 64.3334 26.65 63.7034 26.56C63.6584 26.695 63.6584 26.83 63.6584 26.92C63.6584 27.505 64.1984 27.685 65.1884 27.685C66.8084 27.685 68.1134 27.37 69.2384 27.37C72.0284 27.37 73.3784 28.405 73.3784 34.165C73.3784 40.06 71.8934 42.085 65.9984 42.085C59.9684 42.085 58.8434 40.915 58.8434 38.44C58.8434 36.595 59.5634 35.56 61.3634 35.065V34.84C59.5184 34.345 59.0684 32.86 59.0684 30.745C59.0684 28.315 60.1484 26.965 61.8584 26.2V26.02C59.6534 24.94 58.8884 22.33 58.8884 16.66C58.8884 9.235 60.9134 7.21 66.4934 7.21C66.9884 7.21 70.6334 7.3 73.1984 7.3C73.1534 9.955 73.1534 12.61 73.1984 15.265C72.6134 15.085 71.6684 14.86 70.7234 14.725ZM83.023 3.25C83.023 4.69 82.483 6.265 79.333 6.265C76.093 6.265 75.508 4.69 75.508 3.25C75.508 1.54 76.273 0.414999 79.333 0.414999C82.258 0.414999 83.023 1.54 83.023 3.25ZM82.573 37H76.003C76.093 32.77 76.093 27.19 76.093 21.745C76.093 16.705 76.048 11.62 76.003 7.3H82.573C82.483 11.305 82.483 15.805 82.483 21.79C82.483 28.27 82.483 32.59 82.573 37ZM92.2973 14.05C91.7573 14.05 91.4873 14.68 91.4423 20.17C91.8023 20.17 92.2523 20.17 92.9273 20.17C92.9723 18.865 92.9723 18.055 92.9723 17.38C92.9723 14.545 92.7473 14.05 92.2973 14.05ZM92.8823 24.04H91.3973V24.715C91.3973 28.765 91.4873 29.26 91.9823 29.26C92.5223 29.26 92.6573 28.765 92.6573 25.255C93.3323 25.3 94.2323 25.345 95.1323 25.345C96.2573 25.345 97.2473 25.3 98.1023 25.255C98.4173 33.625 97.0223 37.36 91.9373 37.36C87.0323 37.36 85.3223 34.39 85.3223 23.185C85.3223 9.46 87.1223 6.94 92.2073 6.94C97.1573 6.94 98.3273 9.55 98.3273 16.795C98.3273 20.395 98.2373 22.915 98.1923 24.085C95.7173 24.04 94.0973 24.04 92.8823 24.04ZM109.531 3.25H116.011C115.201 7.705 114.571 13.96 113.761 20.26C114.571 26.56 115.201 32.455 116.011 37H108.766C108.721 35.155 108.496 33.04 108.406 30.88C108.226 28.81 108.091 25.84 108.001 23.005H107.866C107.686 25.84 107.506 28.765 107.371 30.925C107.236 33.085 107.101 35.11 107.011 37H100.531C101.296 32.455 101.926 26.2 102.781 19.9C101.926 13.645 101.296 7.705 100.531 3.25H107.731C107.821 5.32 107.956 7.57 108.136 9.955C108.271 11.935 108.406 14.815 108.541 17.56H108.631C108.811 14.815 109.036 11.935 109.171 9.955C109.351 7.48 109.441 5.32 109.531 3.25Z" fill="black"/>
</svg>
