<svg width="77" height="25" viewBox="0 0 77 25" fill="none" xmlns="http://www.w3.org/2000/svg">
<path d="M0 0.255999H8.16C8.128 1.184 8.128 2.624 8.128 3.872C8.128 5.28 8.128 6.784 8.16 7.744C7.008 7.712 5.632 7.68 4.64 7.68V8.64C5.76 8.64 7.136 8.608 8.032 8.544C8 10.112 7.968 13.248 8 15.04C7.104 14.976 5.792 14.976 4.64 14.976V15.904C5.632 15.904 7.008 15.872 8.16 15.84C8.16 16.896 8.128 18.496 8.128 19.968C8.128 21.44 8.16 23.104 8.16 24.256H0C0.032 20.8 0.064 17.376 0.064 12.256C0.064 7.168 0.032 3.712 0 0.255999Z" fill="black"/>
<path d="M15.499 0.255999H19.563C19.563 1.024 19.467 7.136 19.467 12.224C19.467 17.6 19.467 21.248 19.531 24.256H14.507C14.283 22.624 14.091 21.152 13.835 19.68C13.515 17.792 13.227 15.616 12.971 13.472H12.779C12.907 15.936 12.971 18.144 12.971 19.936C12.971 22.08 13.003 23.712 13.035 24.256H8.907V12.256C8.907 7.168 8.939 3.712 8.907 0.255999H14.251C14.379 1.632 14.667 4.096 15.019 7.008C15.243 8.384 15.499 10.336 15.691 12.288L15.851 12.256C15.723 10.176 15.627 8.16 15.627 6.912C15.595 4.512 15.563 2.4 15.499 0.255999Z" fill="black"/>
<path d="M20.3438 0.255999H28.5037C28.4717 1.184 28.4718 2.624 28.4718 3.872C28.4718 5.28 28.4717 6.784 28.5037 7.744C27.3517 7.712 25.9757 7.68 24.9837 7.68V8.64C26.1037 8.64 27.4797 8.608 28.3757 8.544C28.3438 10.112 28.3117 13.248 28.3438 15.04C27.4477 14.976 26.1357 14.976 24.9837 14.976V15.904C25.9757 15.904 27.3517 15.872 28.5037 15.84C28.5037 16.896 28.4718 18.496 28.4718 19.968C28.4718 21.44 28.5037 23.104 28.5037 24.256H20.3438C20.3758 20.8 20.4077 17.376 20.4077 12.256C20.4077 7.168 20.3758 3.712 20.3438 0.255999Z" fill="black"/>
<path d="M33.7948 11.872H34.0187C34.7867 11.872 34.9147 11.488 34.9147 8.736C34.9147 6.144 34.7228 5.792 34.1468 5.792H33.7627C33.7627 7.872 33.7628 9.888 33.7948 11.872ZM36.7708 14.752V14.944C38.5628 15.232 39.2668 16.128 39.4588 18.88C39.5548 20.512 39.6508 22.944 39.7467 24.256H35.6188C35.1068 24.256 34.9468 24.032 34.9468 23.392C34.8828 17.024 34.7228 16.576 34.0508 16.576H33.8268C33.8588 19.616 33.9227 22.272 34.0187 24.256H29.2507C29.2827 20.8 29.2827 17.376 29.2827 12.256C29.2827 7.168 29.2827 3.712 29.2507 0.255999H34.7547C38.2747 0.255999 39.5547 1.248 39.5547 7.296C39.5547 12.768 38.8508 14.368 36.7708 14.752Z" fill="black"/>
<path d="M45.4675 10.656H47.4835C48.2835 10.656 49.4035 10.656 50.4275 10.624C50.5555 21.792 49.9795 24.512 45.3395 24.512C41.1155 24.512 39.9955 22.336 39.9955 11.936C39.9955 1.824 41.2115 0 45.3715 0C49.1795 0 50.4595 1.12 50.4595 7.264C50.4595 8 50.4275 8.8 50.3635 9.696C49.7555 9.664 49.0835 9.664 48.0275 9.664C47.0995 9.664 46.3315 9.664 45.6915 9.696C45.7555 8.928 45.7875 8.224 45.7875 7.712C45.7875 6.208 45.7235 5.824 45.3395 5.824C44.7955 5.824 44.6675 6.784 44.6675 11.936C44.6675 17.312 44.8915 18.016 45.4995 18.016C45.9475 18.016 46.1715 17.632 46.2355 16.128C45.9475 16.128 45.6915 16.128 45.4675 16.16C45.4675 15.456 45.4995 13.888 45.4995 13.088C45.4995 12.192 45.4995 11.264 45.4675 10.656Z" fill="black"/>
<path d="M56.1505 24.256H51.0945C51.1265 20.8 51.0945 17.376 51.0945 12.256C51.0945 7.168 51.1265 3.68 51.0945 0.255999H56.1505C56.1185 3.68 56.0865 7.136 56.0865 12.256C56.0865 17.344 56.1185 20.8 56.1505 24.256Z" fill="black"/>
<path d="M56.9062 0.255999H65.0663C65.0343 1.184 65.0342 2.624 65.0342 3.872C65.0342 5.28 65.0343 6.784 65.0663 7.744C63.9143 7.712 62.5382 7.68 61.5462 7.68V8.64C62.6662 8.64 64.0422 8.608 64.9382 8.544C64.9062 10.112 64.8742 13.248 64.9062 15.04C64.0102 14.976 62.6982 14.976 61.5462 14.976V15.904C62.5382 15.904 63.9143 15.872 65.0663 15.84C65.0663 16.896 65.0342 18.496 65.0342 19.968C65.0342 21.44 65.0663 23.104 65.0663 24.256H56.9062C56.9383 20.8 56.9702 17.376 56.9702 12.256C56.9702 7.168 56.9383 3.712 56.9062 0.255999Z" fill="black"/>
<path d="M71.7972 0.255999H76.4053C75.8293 3.424 75.3813 7.872 74.8053 12.352C75.3813 16.832 75.8293 21.024 76.4053 24.256H71.2533C71.2213 22.944 71.0613 21.44 70.9973 19.904C70.8693 18.432 70.7733 16.32 70.7093 14.304H70.6133C70.4853 16.32 70.3573 18.4 70.2613 19.936C70.1653 21.472 70.0692 22.912 70.0052 24.256H65.3972C65.9412 21.024 66.3893 16.576 66.9973 12.096C66.3893 7.648 65.9412 3.424 65.3972 0.255999H70.5173C70.5812 1.728 70.6773 3.328 70.8053 5.024C70.9013 6.432 70.9972 8.48 71.0932 10.432H71.1572C71.2852 8.48 71.4453 6.432 71.5413 5.024C71.6693 3.264 71.7332 1.728 71.7972 0.255999Z" fill="black"/>
</svg>
