<svg width="18" height="17" viewBox="0 0 18 17" fill="none" xmlns="http://www.w3.org/2000/svg">
<path d="M2.25 1V10.375C2.25 11.4105 3.08947 12.25 4.125 12.25H6M2.25 1H1M2.25 1H16M16 1H17.25M16 1V10.375C16 11.4105 15.1605 12.25 14.125 12.25H12.25M6 12.25H12.25M6 12.25L5.16667 14.75M12.25 12.25L13.0833 14.75M13.0833 14.75L13.5 16M13.0833 14.75H5.16667M5.16667 14.75L4.75 16M5.375 8.5L7.875 6L9.66466 7.78966C10.5035 6.58584 11.6003 5.57519 12.875 4.83782" stroke="#FF719D" stroke-width="1.5" stroke-linecap="round" stroke-linejoin="round"/>
</svg>
