<svg width="31" height="32" viewBox="0 0 31 32" fill="none" xmlns="http://www.w3.org/2000/svg">
<g clip-path="url(#clip0_1_730)">
<g clip-path="url(#clip1_1_730)">
<g clip-path="url(#clip2_1_730)">
<path d="M15.9149 25.2394C20.9324 25.2394 25 24.9374 25 22.6519C25 19.8205 23.2274 16.3128 18.9045 15.1991C18.417 15.7859 17.7675 16.2162 17.037 16.4361C16.3065 16.6561 15.5274 16.6558 14.7969 16.4357C14.0664 16.2155 13.4171 15.785 12.9298 15.198C8.60366 16.3105 6.82996 19.8196 6.82996 22.652C6.82996 24.9375 10.8974 25.2394 15.9149 25.2394Z" fill="#161616"/>
<path d="M12.0131 10.8977C12.3323 13.5802 13.76 15.7889 15.9149 15.7889C18.0698 15.7889 19.5036 13.5809 19.8167 10.8977C20.1595 7.95915 18.8203 6.00647 15.9149 6.00647C13.0095 6.00647 11.6703 8.01632 12.0131 10.8977Z" fill="#161616"/>
</g>
</g>
</g>
<defs>
<clipPath id="clip0_1_730">
<rect width="18.17" height="20" fill="white" transform="translate(6.82996 6)"/>
</clipPath>
<clipPath id="clip1_1_730">
<rect width="18.17" height="20" fill="white" transform="translate(6.82996 6)"/>
</clipPath>
<clipPath id="clip2_1_730">
<rect width="18.17" height="19.987" fill="white" transform="translate(6.82996 6.00647)"/>
</clipPath>
</defs>
</svg>
