<svg width="18" height="18" viewBox="0 0 18 18" fill="none" xmlns="http://www.w3.org/2000/svg">
<path fill-rule="evenodd" clip-rule="evenodd" d="M6.5125 5.06971C8.913 1.9858 12.6621 0.000178667 16.875 5.58202e-10C17.0408 -7.00131e-06 17.1997 0.0658379 17.3169 0.183049C17.4342 0.30026 17.5 0.459235 17.5 0.625C17.5 4.83803 15.5144 8.5875 12.4304 10.9882C12.4762 11.2774 12.5 11.5736 12.5 11.875C12.5 14.9816 9.9816 17.5 6.875 17.5C6.52982 17.5 6.25 17.2202 6.25 16.875V13.432C6.24229 13.4265 6.23469 13.4207 6.2272 13.4148C5.43386 12.7857 4.71499 12.0669 4.08593 11.2735C4.07981 11.2658 4.07388 11.258 4.06816 11.25H0.625C0.279822 11.25 0 10.9702 0 10.625C0 7.5184 2.5184 5 5.625 5C5.92665 5 6.2231 5.0238 6.5125 5.06971ZM11.25 4.375C10.2145 4.375 9.375 5.21447 9.375 6.25C9.375 7.28553 10.2145 8.125 11.25 8.125C12.2855 8.125 13.125 7.28553 13.125 6.25C13.125 5.21447 12.2855 4.375 11.25 4.375Z" fill="#FF719D"/>
<path d="M3.13364 13.1182C3.41031 12.9118 3.46728 12.5202 3.26089 12.2435C3.05449 11.9668 2.66288 11.9099 2.38621 12.1163C1.31841 12.9128 0.625 14.188 0.625 15.6249C0.625 15.8546 0.642745 16.0805 0.677047 16.3012C0.718824 16.5701 0.929787 16.7811 1.19869 16.8229C1.41947 16.8572 1.64537 16.8749 1.875 16.8749C3.31195 16.8749 4.5871 16.1815 5.38367 15.1137C5.59006 14.837 5.53309 14.4454 5.25642 14.239C4.97974 14.0326 4.58814 14.0896 4.38174 14.3663C3.81094 15.1314 2.90068 15.6249 1.875 15.6249C1.875 14.5993 2.36848 13.689 3.13364 13.1182Z" fill="#FF719D"/>
</svg>
