<svg width="21" height="20" viewBox="0 0 21 20" fill="none" xmlns="http://www.w3.org/2000/svg">
<path d="M20.9079 7.79592C20.9079 7.4966 20.6765 7.30612 20.2137 7.22449L13.8841 6.28571L11.0665 0.571428C10.9031 0.244898 10.699 0.0816326 10.4539 0.0816326C10.2089 0.0816326 10.0048 0.244898 9.84141 0.571428L7.02375 6.28571L0.694207 7.22449C0.231403 7.30612 0 7.4966 0 7.79592C0 7.98639 0.108895 8.19048 0.326686 8.40816L4.90029 12.8571L3.79772 19.1429C3.79772 19.2517 3.79772 19.3333 3.79772 19.3878C3.79772 19.551 3.83856 19.6939 3.92023 19.8163C4.0019 19.9388 4.13802 20 4.32859 20C4.46471 20 4.62805 19.9456 4.81862 19.8367L10.4539 16.898L16.0893 19.8367C16.2798 19.9456 16.4432 20 16.5793 20C16.7699 20 16.906 19.9388 16.9877 19.8163C17.0693 19.6939 17.1102 19.551 17.1102 19.3878C17.1102 19.2789 17.1102 19.1973 17.1102 19.1429L16.0076 12.8571L20.5812 8.40816C20.799 8.19048 20.9079 7.98639 20.9079 7.79592Z" fill="#FF719D"/>
</svg>
