<svg width="22" height="20" viewBox="0 0 22 20" fill="none" xmlns="http://www.w3.org/2000/svg">
<path d="M20.9639 7.75515C20.9639 7.45583 20.7326 7.26535 20.27 7.18372L13.9435 6.24494L11.1271 0.530657C10.9639 0.204126 10.7598 0.0408611 10.5149 0.0408611C10.27 0.0408611 10.0659 0.204126 9.90265 0.530657L7.08633 6.24494L0.759795 7.18372C0.29721 7.26535 0.065918 7.45583 0.065918 7.75515C0.065918 7.94562 0.174761 8.1497 0.392449 8.36739L4.96388 12.8164L3.86184 19.1021C3.86184 19.2109 3.86184 19.2926 3.86184 19.347C3.86184 19.5102 3.90265 19.6531 3.98429 19.7756C4.06592 19.898 4.20197 19.9592 4.39245 19.9592C4.5285 19.9592 4.69177 19.9048 4.88224 19.796L10.5149 16.8572L16.1476 19.796C16.338 19.9048 16.5013 19.9592 16.6373 19.9592C16.8278 19.9592 16.9639 19.898 17.0455 19.7756C17.1271 19.6531 17.168 19.5102 17.168 19.347C17.168 19.2381 17.168 19.1565 17.168 19.1021L16.0659 12.8164L20.6373 8.36739C20.855 8.1497 20.9639 7.94562 20.9639 7.75515Z" fill="#FF719D"/>
</svg>
