<svg width="21" height="20" viewBox="0 0 21 20" fill="none" xmlns="http://www.w3.org/2000/svg">
<path d="M20.5833 8.40721C20.8555 8.13508 20.9576 7.88336 20.8896 7.65205C20.8215 7.42074 20.5969 7.27787 20.2157 7.22344L13.8855 6.28459L11.0676 0.569836C10.9042 0.243279 10.7 0.0799999 10.455 0.0799999C10.21 0.0799999 10.0058 0.243279 9.8424 0.569836L7.02445 6.28459L0.694277 7.22344C0.313105 7.27787 0.0884863 7.42074 0.0204199 7.65205C-0.0476465 7.88336 0.0544531 8.13508 0.326719 8.40721L4.90078 12.8566L3.79811 19.1428C3.77088 19.4149 3.79811 19.6258 3.87979 19.7755C3.96146 19.9252 4.11121 20 4.32902 20C4.46516 20 4.62852 19.9456 4.8191 19.8367L10.455 16.8977L16.0909 19.8367C16.2815 19.9456 16.4448 20 16.581 20C16.7988 20 16.9485 19.9252 17.0302 19.7755C17.1119 19.6258 17.1391 19.4149 17.1119 19.1428L16.0092 12.8566L20.5833 8.40721ZM14.9065 11.6728L14.2939 12.2851L14.4573 13.1015L15.1924 17.5508L11.1901 15.469L10.455 15.0608V2.9782L12.4562 7.01934L12.8237 7.7541L13.6405 7.91738L18.1329 8.57049L14.9065 11.6728Z" fill="#FF719D"/>
</svg>
